<svg xmlns="http://www.w3.org/2000/svg" width="96" viewBox="0 0 96 96" height="96" version="1.0"><defs><clipPath id="a"><path d="M 1.257812 1.257812 L 94.742188 1.257812 L 94.742188 94.742188 L 1.257812 94.742188 Z M 1.257812 1.257812"/></clipPath><clipPath id="b"><path d="M 94.742188 48 C 94.742188 73.8125 73.8125 94.742188 48 94.742188 C 22.1875 94.742188 1.257812 73.8125 1.257812 48 C 1.257812 22.1875 22.1875 1.257812 48 1.257812 C 73.8125 1.257812 94.742188 22.1875 94.742188 48 Z M 94.742188 48"/></clipPath><clipPath id="c"><path d="M 22 18.066406 L 73.75 18.066406 L 73.75 77.976562 L 22 77.976562 Z M 22 18.066406"/></clipPath><clipPath id="d"><path d="M 22 24.59375 L 73.75 24.59375 L 73.75 71.324219 L 22 71.324219 Z M 22 24.59375"/></clipPath><clipPath id="e"><path d="M 22 18.066406 L 73.75 18.066406 L 73.75 77.976562 L 22 77.976562 Z M 22 18.066406"/></clipPath></defs><g clip-path="url(#a)"><g clip-path="url(#b)"><path fill="#FFF" d="M 1.257812 1.257812 L 94.742188 1.257812 L 94.742188 94.742188 L 1.257812 94.742188 Z M 1.257812 1.257812"/></g></g><g clip-path="url(#c)"><path fill="#00C3D6" d="M 47.855469 77.976562 L 47.855469 74.652344 L 22 58.085938 L 22 61.410156 Z M 47.855469 54.613281 L 47.855469 57.957031 L 58.09375 51.390625 L 55.496094 49.726562 Z M 47.898438 18.066406 L 47.898438 21.394531 L 73.75 37.960938 L 73.75 34.632812 Z M 47.898438 41.433594 L 47.898438 38.085938 L 37.640625 44.65625 L 40.257812 46.316406 L 47.898438 41.433594"/></g><g clip-path="url(#d)"><path fill="#D9D9D9" d="M 47.855469 71.304688 L 47.855469 67.957031 L 22 51.390625 L 22 54.738281 Z M 47.855469 64.632812 L 63.304688 54.71875 L 60.710938 53.054688 L 47.855469 61.304688 Z M 47.898438 24.742188 L 47.898438 28.089844 L 73.75 44.65625 L 73.75 41.308594 Z M 47.898438 31.414062 L 32.425781 41.328125 L 35.042969 42.992188 L 47.898438 34.738281 L 47.898438 31.414062"/><path fill="#1FB5FF" d="M 47.855469 64.632812 L 47.855469 61.285156 L 22 44.71875 L 22 48.066406 Z M 47.855469 71.304688 L 68.539062 58.0625 L 65.921875 56.378906 L 47.855469 67.980469 Z M 47.898438 31.414062 L 47.898438 34.761719 L 73.75 51.328125 L 73.75 47.980469 Z M 47.898438 24.742188 L 27.214844 37.980469 L 29.808594 39.664062 L 47.898438 28.066406 L 47.898438 24.742188"/></g><g clip-path="url(#e)"><path fill="#85FCFF" d="M 47.855469 57.957031 L 47.855469 54.613281 L 22 38.042969 L 22 41.390625 Z M 47.855469 77.976562 L 73.75 61.390625 L 71.132812 59.726562 L 47.855469 74.652344 Z M 47.898438 38.085938 L 47.898438 41.433594 L 73.75 58 L 73.75 54.652344 Z M 47.898438 18.066406 L 22 34.65625 L 24.597656 36.320312 L 47.898438 21.394531 L 47.898438 18.066406"/></g></svg>