<?xml version="1.0" encoding="UTF-8"?>
<!DOCTYPE svg PUBLIC "-//W3C//DTD SVG 20010904//EN"
 "http://www.w3.org/TR/2001/REC-SVG-20010904/DTD/svg10.dtd">
<svg version="1.0" xmlns="http://www.w3.org/2000/svg"
 width="279.000000pt" height="282.000000pt" viewBox="0 0 279.000000 282.000000"
 preserveAspectRatio="xMidYMid meet">

<g transform="translate(0.000000,282.000000) scale(0.100000,-0.100000)"
fill="#000000" stroke="none">
<path d="M1210 2774 c-115 -20 -155 -29 -225 -51 -358 -112 -648 -356 -817
-688 -105 -207 -148 -388 -148 -625 0 -237 43 -418 148 -625 191 -375 526
-629 957 -726 82 -19 448 -19 530 0 505 114 882 449 1040 924 47 142 65 257
65 422 0 240 -43 424 -148 630 -161 316 -434 555 -767 672 -157 54 -219 65
-420 68 -104 2 -201 2 -215 -1z m578 -739 l362 -230 0 -42 c0 -24 -2 -43 -5
-43 -2 0 -171 106 -375 236 -205 129 -378 233 -385 231 -7 -3 -163 -101 -346
-217 l-334 -213 -32 19 c-18 11 -34 23 -35 27 -2 4 166 115 372 246 329 209
378 237 396 227 11 -6 183 -114 382 -241z m-405 -36 c-5 -5 -125 -83 -268
-173 l-259 -165 -29 18 c-16 10 -30 22 -30 26 -1 5 131 93 293 196 l295 187 3
-40 c2 -22 -1 -45 -5 -49z m396 -349 l370 -235 1 -47 0 -47 -377 240 -378 240
-3 45 c-2 28 1 45 7 43 5 -2 177 -110 380 -239z m-757 -199 c191 -122 354
-224 361 -227 8 -3 63 26 123 65 l109 70 30 -19 c16 -10 31 -23 32 -27 2 -8
-279 -187 -292 -186 -3 0 -175 108 -381 239 l-374 239 0 49 c0 48 0 48 23 34
12 -9 178 -115 369 -237z m748 11 l375 -238 3 -47 c2 -26 1 -47 -2 -47 -3 0
-172 106 -376 235 -204 129 -376 235 -382 235 -6 0 -58 -30 -116 -67 l-104
-66 -34 18 c-19 10 -34 21 -34 24 0 6 279 188 290 190 3 0 174 -107 380 -237z
m-730 -220 c184 -117 339 -217 343 -221 5 -5 7 -27 5 -49 l-3 -41 -375 238
-375 238 -3 48 -3 47 38 -23 c21 -13 189 -119 373 -237z m923 -105 l28 -22
-295 -188 c-163 -103 -298 -187 -301 -187 -3 0 -5 19 -5 43 l0 42 263 167
c144 92 267 167 272 168 6 0 23 -10 38 -23z m-958 -265 c176 -113 334 -214
352 -224 l32 -19 332 211 c183 117 339 215 347 217 13 5 82 -26 82 -37 -1 -7
-737 -474 -753 -478 -7 -1 -181 105 -387 236 l-375 239 -3 48 -3 48 28 -18
c15 -11 172 -111 348 -223z"/>
</g>
</svg>
